<svg width="1000" height="500" viewBox="0 0 1000 500" fill="none" xmlns="http://www.w3.org/2000/svg">
<rect width="1000" height="500" fill="white"/>
<path d="M883.029 462.857C881.736 462.159 880.929 460.807 880.929 459.337V457V451.487C880.929 445.92 877.1 440.699 871.94 439.386C871.94 439.386 870.8 439 869 439C867.207 439 866.071 439.386 866.071 439.386C860.916 440.704 857 445.925 857 451.492V457V459.353C857 460.818 856.2 462.165 854.913 462.866L851 464.997V469H887V465L883.029 462.857ZM865 471.441C865 473.386 866.789 474.963 869 474.963C871.211 474.963 873 473.388 873 471.441V471H865V471.441Z" fill="#F1F8FE"/>
<path d="M947.029 207.857C945.736 207.159 944.929 205.807 944.929 204.337V202V196.487C944.929 190.92 941.1 185.699 935.94 184.386C935.94 184.386 934.8 184 933 184C931.207 184 930.071 184.386 930.071 184.386C924.916 185.704 921 190.925 921 196.492V202V204.353C921 205.818 920.2 207.165 918.913 207.866L915 209.997V214H951V210L947.029 207.857ZM929 216.441C929 218.386 930.789 219.963 933 219.963C935.211 219.963 937 218.388 937 216.441V216H929V216.441Z" fill="#F1F8FE"/>
<path d="M654.029 86.8573C652.736 86.1591 651.929 84.8074 651.929 83.3372V81V75.4869C651.929 69.92 648.1 64.6989 642.94 63.3865C642.94 63.3865 641.8 63 640 63C638.207 63 637.071 63.3865 637.071 63.3865C631.916 64.7041 628 69.9253 628 75.4922V81V83.353C628 84.8175 627.2 86.165 625.913 86.8656L622 88.9974V93H658V89L654.029 86.8573ZM636 95.4413C636 97.3857 637.789 98.963 640 98.963C642.211 98.963 644 97.3884 644 95.4413V95H636V95.4413Z" fill="#F1F8FE"/>
<path d="M404.667 360.333C400.726 359.955 396.778 360.992 393.532 363.258C390.286 365.525 387.953 368.873 386.95 372.703C385.947 376.533 386.341 380.595 388.06 384.161C389.78 387.728 392.712 390.565 396.333 392.167C398.43 393.115 400.699 393.625 403 393.667C406.663 393.667 410.225 392.46 413.133 390.233C413.484 389.966 413.715 389.569 413.774 389.132C413.834 388.695 413.717 388.251 413.45 387.9C413.317 387.724 413.151 387.576 412.961 387.464C412.77 387.353 412.56 387.28 412.341 387.251C412.122 387.221 411.9 387.235 411.687 387.293C411.474 387.35 411.275 387.448 411.1 387.583C409.371 388.889 407.351 389.754 405.213 390.103C403.075 390.452 400.884 390.275 398.83 389.587C396.776 388.899 394.92 387.722 393.424 386.155C391.927 384.589 390.835 382.682 390.241 380.599C389.647 378.515 389.57 376.319 390.016 374.199C390.462 372.079 391.418 370.1 392.8 368.432C394.183 366.765 395.952 365.46 397.952 364.629C399.953 363.799 402.126 363.468 404.283 363.667C407.631 364.054 410.716 365.669 412.942 368.2C415.168 370.73 416.376 373.997 416.333 377.367V378.5C416.331 378.883 416.252 379.261 416.101 379.613C415.949 379.965 415.729 380.282 415.452 380.547C415.175 380.811 414.847 381.017 414.489 381.152C414.131 381.287 413.749 381.349 413.367 381.333C412.604 381.249 411.901 380.88 411.4 380.298C410.899 379.717 410.637 378.967 410.667 378.2V371C410.667 370.558 410.491 370.134 410.178 369.821C409.866 369.509 409.442 369.333 409 369.333C408.593 369.33 408.199 369.475 407.892 369.742C407.585 370.009 407.386 370.38 407.333 370.783C405.782 369.322 403.731 368.511 401.6 368.517C400.152 368.527 398.731 368.909 397.472 369.624C396.213 370.34 395.158 371.366 394.408 372.604C393.657 373.843 393.237 375.253 393.185 376.7C393.134 378.147 393.454 379.583 394.115 380.872C394.776 382.16 395.756 383.258 396.961 384.061C398.167 384.863 399.557 385.344 401.001 385.457C402.445 385.57 403.893 385.312 405.209 384.707C406.524 384.101 407.663 383.17 408.517 382C409 382.748 409.645 383.379 410.403 383.848C411.161 384.316 412.014 384.609 412.9 384.707C413.786 384.804 414.682 384.703 415.524 384.411C416.366 384.118 417.132 383.642 417.767 383.017C418.378 382.435 418.862 381.734 419.189 380.957C419.516 380.179 419.678 379.343 419.667 378.5V377.367C419.704 373.178 418.194 369.123 415.425 365.98C412.657 362.837 408.826 360.826 404.667 360.333V360.333ZM401.633 382.15C400.615 382.15 399.619 381.848 398.772 381.282C397.925 380.716 397.265 379.912 396.875 378.971C396.485 378.03 396.384 376.994 396.582 375.995C396.781 374.996 397.271 374.078 397.992 373.358C398.712 372.638 399.63 372.148 400.629 371.949C401.628 371.75 402.663 371.852 403.604 372.242C404.545 372.632 405.349 373.292 405.915 374.139C406.481 374.986 406.783 375.981 406.783 377C406.779 378.364 406.235 379.672 405.27 380.637C404.305 381.601 402.998 382.145 401.633 382.15V382.15Z" fill="#F1F8FE"/>
<path d="M253.667 253.333C249.726 252.955 245.779 253.992 242.532 256.258C239.286 258.525 236.953 261.873 235.95 265.703C234.947 269.533 235.341 273.595 237.06 277.161C238.78 280.728 241.712 283.565 245.333 285.167C247.43 286.115 249.699 286.625 252 286.667C255.663 286.667 259.225 285.46 262.133 283.233C262.484 282.966 262.715 282.569 262.774 282.132C262.834 281.695 262.717 281.251 262.45 280.9C262.317 280.724 262.151 280.576 261.961 280.464C261.77 280.353 261.56 280.28 261.341 280.251C261.123 280.221 260.9 280.235 260.687 280.293C260.474 280.35 260.275 280.448 260.1 280.583C258.371 281.889 256.351 282.754 254.213 283.103C252.075 283.452 249.884 283.275 247.83 282.587C245.776 281.899 243.92 280.722 242.424 279.155C240.927 277.589 239.835 275.682 239.241 273.599C238.647 271.515 238.57 269.319 239.016 267.199C239.462 265.079 240.418 263.1 241.8 261.432C243.183 259.765 244.952 258.46 246.952 257.629C248.953 256.799 251.126 256.468 253.283 256.667C256.631 257.054 259.716 258.669 261.942 261.2C264.168 263.73 265.376 266.997 265.333 270.367V271.5C265.331 271.883 265.252 272.261 265.101 272.613C264.949 272.965 264.729 273.282 264.452 273.547C264.175 273.811 263.848 274.017 263.489 274.152C263.131 274.287 262.749 274.349 262.367 274.333C261.604 274.249 260.901 273.88 260.4 273.298C259.899 272.717 259.637 271.967 259.667 271.2V264C259.667 263.558 259.491 263.134 259.178 262.821C258.866 262.509 258.442 262.333 258 262.333C257.593 262.33 257.199 262.475 256.892 262.742C256.585 263.009 256.386 263.38 256.333 263.783C254.782 262.322 252.731 261.511 250.6 261.517C249.152 261.527 247.731 261.909 246.472 262.624C245.213 263.34 244.158 264.366 243.408 265.604C242.657 266.843 242.237 268.253 242.186 269.7C242.134 271.147 242.455 272.583 243.115 273.872C243.776 275.16 244.756 276.258 245.961 277.061C247.167 277.863 248.557 278.344 250.001 278.457C251.445 278.57 252.893 278.312 254.209 277.707C255.524 277.101 256.663 276.17 257.517 275C258 275.748 258.645 276.379 259.403 276.848C260.161 277.316 261.014 277.609 261.9 277.707C262.786 277.804 263.682 277.703 264.524 277.411C265.366 277.118 266.132 276.642 266.767 276.017C267.378 275.435 267.862 274.734 268.189 273.957C268.516 273.179 268.678 272.343 268.667 271.5V270.367C268.704 266.178 267.194 262.123 264.425 258.98C261.657 255.837 257.826 253.826 253.667 253.333V253.333ZM250.633 275.15C249.615 275.15 248.619 274.848 247.772 274.282C246.925 273.716 246.265 272.912 245.875 271.971C245.486 271.03 245.384 269.994 245.582 268.995C245.781 267.996 246.271 267.078 246.992 266.358C247.712 265.638 248.63 265.148 249.629 264.949C250.628 264.75 251.663 264.852 252.604 265.242C253.545 265.632 254.35 266.292 254.915 267.139C255.481 267.986 255.783 268.981 255.783 270C255.779 271.364 255.235 272.672 254.27 273.637C253.305 274.601 251.998 275.145 250.633 275.15V275.15Z" fill="#F1F8FE"/>
<path d="M111.578 416.73C109.562 418.657 108.535 420.078 107.781 421.008C108.867 421.668 116.715 426.483 120.638 429C121.103 418.848 123.073 408.103 124 404C116.396 405.929 100.832 412.46 94 415.485L102.405 418.657C104.932 416.988 111.287 413.022 116.5 410.52" stroke="#F1F8FE" stroke-linecap="round" stroke-linejoin="round"/>
<path d="M878.333 114.042C878 113.875 875.833 112.875 875.5 112.708C875.167 112.542 874.833 112.542 874.5 112.875C874.167 113.208 873.5 114.208 873.167 114.542C873 114.875 872.667 114.875 872.333 114.708C871.167 114.208 870 113.542 869 112.708C868.167 111.875 867.333 110.875 866.667 109.875C866.5 109.542 866.667 109.208 866.833 109.042C867 108.875 867.167 108.542 867.5 108.375C867.667 108.208 867.833 107.875 867.833 107.708C868 107.542 868 107.208 867.833 107.042C867.667 106.875 866.833 104.875 866.5 104.042C866.333 102.875 866 102.875 865.667 102.875C865.5 102.875 865.167 102.875 864.833 102.875C864.5 102.875 864 103.208 863.833 103.375C862.833 104.375 862.333 105.542 862.333 106.875C862.5 108.375 863 109.875 864 111.208C865.833 113.875 868.167 116.042 871 117.375C871.833 117.708 872.5 118.042 873.333 118.208C874.167 118.542 875 118.542 876 118.375C877.167 118.208 878.167 117.375 878.833 116.375C879.167 115.708 879.167 115.042 879 114.375C879 114.375 878.667 114.208 878.333 114.042ZM882.5 98.875C876 92.375 865.5 92.375 859 98.875C853.667 104.208 852.667 112.375 856.333 118.875L854 127.375L862.833 125.042C865.333 126.375 868 127.042 870.667 127.042C879.833 127.042 887.167 119.708 887.167 110.542C887.333 106.208 885.5 102.042 882.5 98.875ZM878 122.208C875.833 123.542 873.333 124.375 870.667 124.375C868.167 124.375 865.833 123.708 863.667 122.542L863.167 122.208L858 123.542L859.333 118.542L859 118.042C855 111.375 857 103.042 863.5 98.875C870 94.7083 878.333 96.875 882.333 103.208C886.333 109.708 884.5 118.208 878 122.208Z" fill="#F1F8FE"/>
<path fill-rule="evenodd" clip-rule="evenodd" d="M81.5166 306.86L75.4416 314.37V321.054L77.2949 321.1C78.1166 321.122 78.7683 321.799 78.7566 322.619C78.7466 323.44 78.0782 324.1 77.2582 324.1H70.5916C69.7632 324.1 69.0916 323.429 69.0916 322.6C69.0916 321.772 69.7632 321.1 70.5916 321.1H72.4416V314.449L62.4766 304.2H60.7116L60.4833 304.184L60.1966 304.11L59.9349 303.984L59.7033 303.812L59.5099 303.599L59.3599 303.352L59.2599 303.075L59.2199 302.854L59.2133 302.624L59.2433 302.399L59.3299 302.117L59.4683 301.862L59.6516 301.64L59.8733 301.457L60.1283 301.319L60.41 301.232L60.6349 301.204L60.7116 301.2H67.3783C68.2066 301.2 68.8783 301.874 68.8783 302.7C68.8783 303.529 68.2066 304.2 67.3783 304.2H66.66L73.8383 311.582L77.6583 306.86H76.5149C75.6866 306.86 75.015 306.189 75.015 305.36C75.015 304.532 75.6866 303.86 76.5149 303.86H83.1816C84.0083 303.86 84.6816 304.532 84.6816 305.36C84.6816 306.189 84.0083 306.86 83.1816 306.86H81.5166ZM85.8333 320.97C86.6616 320.97 87.3333 321.644 87.3333 322.47C87.3333 323.299 86.6616 323.97 85.8333 323.97C85.0049 323.97 84.3333 323.299 84.3333 322.47C84.3333 321.644 85.0049 320.97 85.8333 320.97ZM84.3633 311.517V318.235C84.3633 319.064 85.035 319.735 85.8633 319.735C86.6916 319.735 87.3633 319.064 87.3633 318.235V311.517C87.3633 310.689 86.6916 310.017 85.8633 310.017C85.035 310.017 84.3633 310.689 84.3633 311.517Z" fill="#F1F8FE"/>
<path d="M487.75 63.0012C487.364 63.0012 487.003 63.075 486.656 63.1825L490.299 65.5H510.201L513.844 63.1812C513.49 63.0657 513.122 63.0046 512.75 63L487.75 63.0012ZM485.391 63.8612C484.959 64.2087 484.609 64.6484 484.369 65.1482C484.128 65.648 484.002 66.1953 484 66.75V83C484 85.0662 485.685 86.75 487.75 86.75H512.75C514.815 86.75 516.5 85.0662 516.5 83V66.75C516.5 65.5837 515.952 64.5487 515.109 63.86L500.25 73.3125L485.391 63.8612ZM487.75 69.7687L500.25 77.7275L512.75 69.7687V84.2512H487.75V69.7687Z" fill="#F1F8FE"/>
<path d="M265 168.625V163.892C262.783 163.892 261.092 163.3 260 162.15C258.88 160.838 258.252 159.175 258.225 157.45V157.108L253.75 157C253.75 157 253.75 157.192 253.75 157.45V176.225C253.596 177.064 253.189 177.835 252.583 178.435C251.978 179.035 251.202 179.435 250.362 179.581C249.522 179.726 248.657 179.61 247.885 179.249C247.113 178.887 246.47 178.297 246.043 177.559C245.617 176.82 245.427 175.969 245.5 175.119C245.573 174.27 245.904 173.463 246.45 172.808C246.996 172.153 247.73 171.681 248.552 171.456C249.375 171.231 250.247 171.264 251.05 171.55V166.967C250.582 166.89 250.108 166.851 249.633 166.85C247.926 166.85 246.257 167.356 244.837 168.305C243.417 169.254 242.311 170.602 241.657 172.179C241.004 173.757 240.833 175.493 241.166 177.168C241.499 178.842 242.321 180.381 243.529 181.588C244.736 182.795 246.274 183.618 247.949 183.951C249.624 184.284 251.36 184.113 252.937 183.459C254.515 182.806 255.863 181.699 256.812 180.28C257.76 178.86 258.267 177.191 258.267 175.483C258.266 175.13 258.243 174.776 258.2 174.425V166.8C260.235 168.071 262.602 168.706 265 168.625V168.625Z" fill="#F1F8FE"/>
<path fill-rule="evenodd" clip-rule="evenodd" d="M676.179 394.015V402.821C676.179 408.671 672.697 415.167 664.095 415.167C657.462 415.137 652.02 409.671 652.02 403.038C652.02 402.935 652.022 402.833 652.024 402.722C652.218 396.32 657.538 391.161 663.942 391.161C664.534 391.161 665.127 391.206 665.713 391.293C666.447 391.404 666.99 392.035 666.99 392.777V398.493C666.99 398.959 666.774 399.397 666.405 399.682C666.036 399.966 665.558 400.062 665.107 399.944C664.819 399.868 664.521 399.829 664.221 399.829C662.367 399.829 660.823 401.311 660.749 403.164L660.74 403.391C660.74 405.035 662.092 406.388 663.736 406.388L664.4 406.39C666.035 406.39 667.38 405.044 667.38 403.408L667.365 403.038V380.383C667.365 379.555 668.037 378.883 668.865 378.883H674.519C675.256 378.883 675.884 379.418 676 380.145C676.407 382.674 677.178 384.262 678.334 385.255C679.501 386.256 681.009 386.642 682.717 386.915C683.445 387.032 683.98 387.66 683.98 388.396V394.13C683.98 394.549 683.804 394.95 683.496 395.233C683.188 395.517 682.775 395.66 682.357 395.625C680.213 395.449 678.124 394.903 676.179 394.015ZM673.284 381.884H670.366V402.985C670.376 403.125 670.381 403.267 670.381 403.408C670.381 406.689 667.681 409.389 664.4 409.389C664.285 409.389 664.17 409.387 664.055 409.378C663.949 409.385 663.842 409.388 663.736 409.388C660.446 409.388 657.741 406.681 657.741 403.391C657.741 403.264 657.745 403.135 657.75 403.042C657.888 399.669 660.64 396.953 663.989 396.833V394.162L663.942 394.161C659.15 394.161 655.168 398.023 655.023 402.806C655.021 402.882 655.02 402.96 655.02 403.038C655.02 408.03 659.116 412.145 664.102 412.166C670.586 412.166 673.178 407.234 673.178 402.821V391.496C673.178 390.948 673.478 390.443 673.959 390.18C674.44 389.916 675.025 389.937 675.487 390.232C677.167 391.307 679.032 392.048 680.979 392.416V389.639C679.209 389.248 677.656 388.628 676.38 387.532C675.002 386.348 673.908 384.602 673.284 381.884Z" fill="#F1F8FE"/>
<path fill-rule="evenodd" clip-rule="evenodd" d="M610.179 233.015V241.821C610.179 247.671 606.697 254.167 598.095 254.167C591.462 254.137 586.02 248.671 586.02 242.038C586.02 241.935 586.022 241.833 586.024 241.722C586.218 235.32 591.538 230.161 597.942 230.161C598.534 230.161 599.127 230.206 599.713 230.293C600.447 230.404 600.99 231.035 600.99 231.777V237.493C600.99 237.959 600.774 238.397 600.405 238.682C600.036 238.966 599.558 239.062 599.107 238.944C598.819 238.868 598.521 238.829 598.221 238.829C596.367 238.829 594.823 240.311 594.749 242.164L594.74 242.391C594.74 244.035 596.092 245.388 597.736 245.388L598.4 245.39C600.035 245.39 601.38 244.044 601.38 242.408L601.365 242.038V219.383C601.365 218.555 602.037 217.883 602.865 217.883H608.519C609.256 217.883 609.884 218.418 610 219.145C610.407 221.674 611.178 223.262 612.334 224.255C613.501 225.256 615.009 225.642 616.717 225.915C617.445 226.032 617.98 226.66 617.98 227.396V233.13C617.98 233.549 617.804 233.95 617.496 234.233C617.188 234.517 616.775 234.66 616.357 234.625C614.213 234.449 612.124 233.903 610.179 233.015ZM607.284 220.884H604.366V241.985C604.376 242.125 604.381 242.267 604.381 242.408C604.381 245.689 601.681 248.389 598.4 248.389C598.285 248.389 598.17 248.387 598.055 248.378C597.949 248.385 597.842 248.388 597.736 248.388C594.446 248.388 591.741 245.681 591.741 242.391C591.741 242.264 591.745 242.135 591.75 242.042C591.888 238.669 594.64 235.953 597.989 235.833V233.162L597.942 233.161C593.15 233.161 589.168 237.023 589.023 241.806C589.021 241.882 589.02 241.96 589.02 242.038C589.02 247.03 593.116 251.145 598.102 251.166C604.586 251.166 607.178 246.234 607.178 241.821V230.496C607.178 229.948 607.478 229.443 607.959 229.18C608.44 228.916 609.025 228.937 609.487 229.232C611.167 230.307 613.032 231.048 614.979 231.416V228.639C613.209 228.248 611.656 227.628 610.38 226.532C609.002 225.348 607.908 223.602 607.284 220.884Z" fill="#F1F8FE"/>
<g clip-path="url(#clip0)">
<path d="M74 103.44C74 102.153 74.4505 101.091 75.3514 100.255C76.2522 99.4183 77.4234 99 78.8649 99C80.2806 99 81.426 99.4118 82.3012 100.236C83.202 101.085 83.6525 102.192 83.6525 103.556C83.6525 104.792 83.2149 105.821 82.3398 106.645C81.4389 107.494 80.2548 107.919 78.7876 107.919H78.749C77.3333 107.919 76.1879 107.494 75.3127 106.645C74.4376 105.795 74 104.727 74 103.44ZM74.5019 137.224V111.432H83.0734V137.224H74.5019ZM87.8224 137.224H96.3938V122.822C96.3938 121.921 96.4968 121.226 96.7027 120.737C97.063 119.862 97.61 119.122 98.3436 118.517C99.0772 117.912 99.9974 117.61 101.104 117.61C103.987 117.61 105.429 119.553 105.429 123.44V137.224H114V122.436C114 118.627 113.099 115.737 111.297 113.768C109.495 111.799 107.115 110.815 104.154 110.815C100.834 110.815 98.2471 112.243 96.3938 115.1V115.178H96.3552L96.3938 115.1V111.432H87.8224C87.8739 112.256 87.8996 114.817 87.8996 119.116C87.8996 123.414 87.8739 129.45 87.8224 137.224Z" fill="#F1F8FE"/>
</g>
<path d="M516 408.44C516 407.153 516.45 406.091 517.351 405.255C518.252 404.418 519.423 404 520.865 404C522.281 404 523.426 404.412 524.301 405.236C525.202 406.085 525.653 407.192 525.653 408.556C525.653 409.792 525.215 410.821 524.34 411.645C523.439 412.494 522.255 412.919 520.788 412.919H520.749C519.333 412.919 518.188 412.494 517.313 411.645C516.438 410.795 516 409.727 516 408.44ZM516.502 442.224V416.432H525.073V442.224H516.502ZM529.822 442.224H538.394V427.822C538.394 426.921 538.497 426.226 538.703 425.737C539.063 424.862 539.61 424.122 540.344 423.517C541.077 422.912 541.997 422.61 543.104 422.61C545.987 422.61 547.429 424.553 547.429 428.44V442.224H556V427.436C556 423.627 555.099 420.737 553.297 418.768C551.495 416.799 549.115 415.815 546.154 415.815C542.834 415.815 540.247 417.243 538.394 420.1V420.178H538.355L538.394 420.1V416.432H529.822C529.874 417.256 529.9 419.817 529.9 424.116C529.9 428.414 529.874 434.45 529.822 442.224Z" fill="#F1F8FE"/>
<path d="M813.683 272H785.45C785.133 271.996 784.818 272.054 784.523 272.171C784.228 272.289 783.959 272.463 783.731 272.684C783.504 272.906 783.322 273.17 783.197 273.461C783.071 273.753 783.004 274.066 783 274.384V302.95C783.004 303.268 783.071 303.581 783.197 303.873C783.322 304.164 783.504 304.428 783.731 304.649C783.959 304.871 784.228 305.045 784.523 305.162C784.818 305.28 785.133 305.338 785.45 305.334H813.683C814.001 305.338 814.316 305.28 814.611 305.162C814.906 305.045 815.174 304.871 815.402 304.649C815.63 304.428 815.811 304.164 815.937 303.873C816.062 303.581 816.129 303.268 816.133 302.95V274.384C816.129 274.066 816.062 273.753 815.937 273.461C815.811 273.17 815.63 272.906 815.402 272.684C815.174 272.463 814.906 272.289 814.611 272.171C814.316 272.054 814.001 271.996 813.683 272V272ZM793.05 299.9H788.05V284.9H793.05V299.9ZM790.55 282.8C789.86 282.8 789.199 282.526 788.712 282.039C788.224 281.551 787.95 280.89 787.95 280.2C787.95 279.511 788.224 278.849 788.712 278.362C789.199 277.874 789.86 277.6 790.55 277.6C790.916 277.559 791.287 277.595 791.638 277.707C791.989 277.818 792.313 278.003 792.588 278.249C792.863 278.494 793.083 278.795 793.233 279.131C793.384 279.467 793.462 279.832 793.462 280.2C793.462 280.569 793.384 280.933 793.233 281.269C793.083 281.606 792.863 281.907 792.588 282.152C792.313 282.397 791.989 282.582 791.638 282.694C791.287 282.805 790.916 282.842 790.55 282.8V282.8ZM811.083 299.9H806.083V291.85C806.083 289.834 805.367 288.517 803.55 288.517C802.988 288.521 802.44 288.697 801.981 289.022C801.522 289.347 801.174 289.805 800.983 290.334C800.853 290.725 800.796 291.138 800.817 291.55V299.884H795.817C795.817 299.884 795.817 286.25 795.817 284.884H800.817V287C801.271 286.212 801.932 285.563 802.727 285.122C803.523 284.682 804.424 284.467 805.333 284.5C808.667 284.5 811.083 286.65 811.083 291.267V299.9Z" fill="#F1F8FE"/>
<path d="M756.333 100.251C755.081 100.794 753.756 101.154 752.4 101.318C753.83 100.463 754.902 99.119 755.417 97.5343C754.073 98.3344 752.601 98.8982 751.067 99.201C750.041 98.0886 748.675 97.3482 747.183 97.0958C745.691 96.8433 744.158 97.0933 742.823 97.8063C741.488 98.5194 740.428 99.6552 739.809 101.036C739.189 102.416 739.045 103.963 739.4 105.434C736.682 105.297 734.024 104.589 731.598 103.357C729.171 102.126 727.031 100.397 725.317 98.2843C724.715 99.3346 724.399 100.524 724.4 101.734C724.398 102.858 724.674 103.965 725.203 104.957C725.732 105.949 726.498 106.794 727.433 107.418C726.347 107.388 725.283 107.096 724.333 106.568V106.651C724.341 108.226 724.893 109.749 725.896 110.964C726.898 112.179 728.289 113.01 729.833 113.318C729.239 113.499 728.621 113.594 728 113.601C727.57 113.596 727.141 113.557 726.717 113.484C727.157 114.839 728.008 116.023 729.152 116.871C730.296 117.72 731.676 118.19 733.1 118.218C730.695 120.11 727.726 121.142 724.667 121.151C724.11 121.153 723.553 121.119 723 121.051C726.124 123.068 729.765 124.139 733.483 124.134C736.049 124.161 738.595 123.676 740.972 122.708C743.348 121.74 745.508 120.307 747.325 118.495C749.142 116.683 750.58 114.527 751.554 112.153C752.529 109.778 753.02 107.234 753 104.668C753 104.384 753 104.084 753 103.784C754.308 102.809 755.436 101.613 756.333 100.251V100.251Z" fill="#F1F8FE"/>
<path d="M254.652 370.668C252.263 370.581 249.882 370.979 247.651 371.838C245.421 372.697 243.387 373.999 241.674 375.666C239.96 377.333 238.602 379.33 237.682 381.536C236.762 383.742 236.298 386.111 236.319 388.502C236.288 390.965 236.778 393.406 237.759 395.666C238.74 397.925 240.188 399.951 242.009 401.61L242.095 404.428C242.12 405.207 242.446 405.945 243.006 406.488C243.565 407.03 244.314 407.333 245.093 407.333C245.51 407.332 245.922 407.246 246.304 407.079L249.506 405.668C251.185 406.115 252.915 406.339 254.652 406.335C257.041 406.422 259.423 406.024 261.654 405.165C263.884 404.306 265.918 403.004 267.631 401.337C269.345 399.671 270.703 397.674 271.623 395.468C272.544 393.262 273.008 390.892 272.987 388.502C273.008 386.111 272.544 383.742 271.623 381.535C270.703 379.329 269.345 377.333 267.631 375.666C265.918 373.999 263.884 372.697 261.654 371.838C259.423 370.979 257.041 370.581 254.652 370.668V370.668ZM254.652 403.002C253.169 403.006 251.692 402.81 250.261 402.418C249.598 402.239 248.895 402.293 248.267 402.571L245.411 403.83L245.336 401.342C245.319 400.939 245.222 400.543 245.05 400.178C244.878 399.813 244.634 399.487 244.333 399.218C242.834 397.868 241.641 396.214 240.834 394.366C240.026 392.518 239.623 390.518 239.652 388.502C239.642 386.552 240.026 384.62 240.783 382.823C241.539 381.026 242.652 379.401 244.054 378.046C245.455 376.691 247.117 375.634 248.939 374.939C250.76 374.243 252.704 373.925 254.652 374.001C256.598 373.935 258.537 374.261 260.354 374.96C262.171 375.659 263.829 376.717 265.229 378.07C266.628 379.423 267.742 381.043 268.502 382.836C269.262 384.628 269.654 386.555 269.654 388.502C269.654 390.448 269.262 392.375 268.502 394.168C267.742 395.96 266.628 397.581 265.229 398.934C263.829 400.287 262.171 401.344 260.354 402.043C258.537 402.742 256.598 403.068 254.652 403.002ZM260.876 383.31L257.022 387.901L251.444 384.473C251.104 384.264 250.699 384.184 250.305 384.248C249.91 384.312 249.552 384.517 249.296 384.823L244.21 390.884C244.068 391.052 243.961 391.246 243.895 391.455C243.828 391.663 243.804 391.883 243.822 392.102C243.841 392.32 243.903 392.533 244.004 392.727C244.105 392.922 244.243 393.094 244.411 393.235C244.579 393.376 244.773 393.483 244.982 393.548C245.191 393.614 245.412 393.638 245.63 393.619C245.848 393.599 246.061 393.537 246.255 393.435C246.449 393.334 246.621 393.195 246.762 393.026L250.925 388.067L256.503 391.493C256.843 391.703 257.247 391.783 257.642 391.719C258.036 391.655 258.395 391.451 258.651 391.145L263.428 385.451C263.571 385.284 263.678 385.09 263.745 384.881C263.812 384.672 263.837 384.452 263.819 384.233C263.801 384.014 263.739 383.801 263.638 383.606C263.537 383.411 263.398 383.238 263.23 383.096C263.062 382.955 262.867 382.849 262.658 382.783C262.448 382.717 262.228 382.694 262.009 382.713C261.79 382.733 261.577 382.796 261.383 382.898C261.189 383.001 261.016 383.14 260.876 383.31V383.31Z" fill="#F1F8FE"/>
<path d="M397.183 244.533H400.317V239.233C398.8 239.076 397.275 238.998 395.75 239C391.217 239 388.117 241.767 388.117 246.833V251.2H383V257.133H388.117V272.333H394.25V257.133H399.35L400.117 251.2H394.25V247.417C394.25 245.667 394.717 244.533 397.183 244.533Z" fill="#F1F8FE"/>
<path d="M932.667 350.181C932.667 349.887 932.589 349.597 932.441 349.343C932.294 349.088 932.081 348.878 931.825 348.732C931.569 348.587 931.279 348.511 930.985 348.514C930.69 348.517 930.402 348.598 930.149 348.749C929.174 349.329 928.123 349.774 927.027 350.07C925.462 348.727 923.466 347.993 921.404 348C919.142 348.003 916.969 348.884 915.344 350.459C913.72 352.034 912.771 354.178 912.698 356.439C908.238 355.728 904.196 353.4 901.342 349.899C901.17 349.691 900.951 349.527 900.702 349.421C900.453 349.315 900.183 349.27 899.913 349.291C899.644 349.313 899.384 349.4 899.156 349.546C898.928 349.691 898.739 349.889 898.605 350.124C897.917 351.324 897.522 352.669 897.452 354.05C897.382 355.43 897.638 356.808 898.201 358.072L898.198 358.075C897.945 358.231 897.736 358.448 897.592 358.708C897.447 358.967 897.372 359.259 897.372 359.556C897.369 359.801 897.384 360.046 897.416 360.288C897.587 362.386 898.516 364.348 900.03 365.809C899.928 366.005 899.865 366.219 899.846 366.439C899.827 366.66 899.852 366.881 899.92 367.092C900.58 369.149 901.984 370.885 903.857 371.962C901.954 372.697 899.899 372.954 897.874 372.709C897.499 372.662 897.119 372.743 896.797 372.941C896.474 373.138 896.229 373.438 896.1 373.794C895.971 374.149 895.967 374.537 896.088 374.895C896.209 375.253 896.448 375.559 896.765 375.764C900.249 378.007 904.305 379.2 908.448 379.2C913.147 379.252 917.732 377.751 921.489 374.929C925.246 372.106 927.965 368.122 929.223 363.594C929.811 361.622 930.112 359.575 930.115 357.517C930.115 357.408 930.115 357.295 930.113 357.183C930.984 356.245 931.658 355.142 932.096 353.939C932.535 352.737 932.729 351.459 932.667 350.181V350.181ZM927.156 355.534C926.881 355.86 926.741 356.279 926.767 356.704C926.783 356.979 926.782 357.256 926.782 357.517C926.778 359.256 926.523 360.985 926.025 362.652C924.997 366.504 922.707 369.9 919.52 372.296C916.333 374.692 912.434 375.949 908.448 375.866C907.016 375.867 905.59 375.698 904.197 375.365C905.973 374.793 907.633 373.91 909.101 372.759C909.371 372.546 909.569 372.255 909.667 371.925C909.766 371.595 909.759 371.243 909.65 370.917C909.54 370.591 909.332 370.307 909.054 370.104C908.776 369.9 908.442 369.788 908.098 369.782C906.713 369.761 905.39 369.202 904.409 368.225C904.658 368.177 904.905 368.119 905.151 368.049C905.511 367.946 905.826 367.726 906.045 367.422C906.265 367.119 906.375 366.751 906.36 366.377C906.345 366.003 906.204 365.645 905.96 365.361C905.717 365.076 905.384 364.882 905.017 364.81C904.213 364.651 903.457 364.309 902.806 363.81C902.156 363.311 901.629 362.669 901.267 361.934C901.568 361.975 901.872 362.001 902.175 362.01C902.536 362.016 902.89 361.906 903.184 361.698C903.479 361.489 903.7 361.192 903.814 360.85C903.924 360.505 903.919 360.133 903.798 359.791C903.678 359.449 903.449 359.156 903.147 358.955C902.414 358.467 901.814 357.804 901.399 357.027C900.985 356.25 900.77 355.382 900.774 354.501C900.774 354.39 900.777 354.279 900.784 354.17C904.519 357.654 909.364 359.708 914.466 359.969C914.723 359.98 914.979 359.931 915.215 359.828C915.451 359.724 915.661 359.568 915.828 359.372C915.993 359.174 916.11 358.94 916.17 358.689C916.229 358.438 916.23 358.176 916.171 357.925C916.076 357.527 916.027 357.12 916.026 356.711C916.028 355.285 916.595 353.918 917.603 352.91C918.611 351.902 919.978 351.335 921.404 351.333C922.138 351.331 922.864 351.482 923.536 351.774C924.209 352.067 924.813 352.496 925.312 353.034C925.504 353.241 925.746 353.395 926.015 353.482C926.283 353.569 926.57 353.586 926.847 353.531C927.531 353.397 928.206 353.218 928.867 352.994C928.416 353.915 927.84 354.77 927.156 355.534V355.534Z" fill="#F1F8FE"/>
<path d="M459.667 155.181C459.667 154.887 459.589 154.597 459.441 154.343C459.294 154.088 459.081 153.878 458.825 153.732C458.569 153.587 458.279 153.511 457.985 153.514C457.69 153.517 457.402 153.598 457.149 153.749C456.174 154.329 455.123 154.774 454.027 155.07C452.462 153.727 450.466 152.993 448.404 153C446.142 153.003 443.969 153.884 442.344 155.459C440.72 157.034 439.771 159.178 439.698 161.439C435.238 160.728 431.196 158.4 428.342 154.899C428.17 154.691 427.951 154.527 427.702 154.421C427.453 154.315 427.183 154.27 426.913 154.291C426.644 154.313 426.384 154.4 426.156 154.546C425.928 154.691 425.739 154.889 425.605 155.124C424.917 156.324 424.522 157.669 424.452 159.05C424.382 160.43 424.638 161.808 425.201 163.072L425.198 163.075C424.945 163.231 424.736 163.448 424.592 163.708C424.447 163.967 424.372 164.259 424.372 164.556C424.369 164.801 424.384 165.046 424.416 165.288C424.587 167.386 425.516 169.348 427.03 170.809C426.928 171.005 426.865 171.219 426.846 171.439C426.827 171.66 426.852 171.881 426.92 172.092C427.58 174.149 428.984 175.885 430.857 176.962C428.954 177.697 426.899 177.954 424.874 177.709C424.499 177.662 424.119 177.743 423.797 177.941C423.474 178.138 423.229 178.438 423.1 178.794C422.971 179.149 422.967 179.537 423.088 179.895C423.209 180.253 423.448 180.559 423.765 180.764C427.249 183.007 431.305 184.2 435.448 184.2C440.147 184.252 444.732 182.751 448.489 179.929C452.246 177.106 454.965 173.122 456.223 168.594C456.811 166.622 457.112 164.575 457.115 162.517C457.115 162.408 457.115 162.295 457.113 162.183C457.984 161.245 458.658 160.142 459.096 158.939C459.535 157.737 459.729 156.459 459.667 155.181V155.181ZM454.156 160.534C453.881 160.86 453.741 161.279 453.767 161.704C453.783 161.979 453.782 162.256 453.782 162.517C453.778 164.256 453.523 165.985 453.025 167.652C451.997 171.504 449.707 174.9 446.52 177.296C443.333 179.692 439.434 180.949 435.448 180.866C434.016 180.867 432.59 180.698 431.197 180.365C432.973 179.793 434.633 178.91 436.101 177.759C436.371 177.546 436.569 177.255 436.667 176.925C436.766 176.595 436.759 176.243 436.65 175.917C436.54 175.591 436.332 175.307 436.054 175.104C435.776 174.9 435.442 174.788 435.098 174.782C433.713 174.761 432.39 174.202 431.409 173.225C431.658 173.177 431.905 173.119 432.151 173.049C432.511 172.946 432.826 172.726 433.045 172.422C433.265 172.119 433.375 171.751 433.36 171.377C433.345 171.003 433.204 170.645 432.96 170.361C432.717 170.076 432.384 169.882 432.017 169.81C431.213 169.651 430.457 169.309 429.806 168.81C429.156 168.311 428.629 167.669 428.267 166.934C428.568 166.975 428.872 167.001 429.175 167.01C429.536 167.016 429.89 166.906 430.184 166.698C430.479 166.489 430.7 166.192 430.814 165.85C430.924 165.505 430.919 165.133 430.798 164.791C430.678 164.449 430.449 164.156 430.147 163.955C429.414 163.467 428.814 162.804 428.399 162.027C427.985 161.25 427.77 160.382 427.774 159.501C427.774 159.39 427.777 159.279 427.784 159.17C431.519 162.654 436.364 164.708 441.466 164.969C441.723 164.98 441.979 164.931 442.215 164.828C442.451 164.724 442.661 164.568 442.828 164.372C442.993 164.174 443.11 163.94 443.17 163.689C443.229 163.438 443.23 163.176 443.171 162.925C443.076 162.527 443.027 162.12 443.026 161.711C443.028 160.285 443.595 158.918 444.603 157.91C445.611 156.902 446.978 156.335 448.404 156.333C449.138 156.331 449.864 156.482 450.536 156.774C451.209 157.067 451.813 157.496 452.312 158.034C452.504 158.241 452.746 158.395 453.015 158.482C453.283 158.569 453.57 158.586 453.847 158.531C454.531 158.397 455.206 158.218 455.867 157.994C455.416 158.915 454.84 159.77 454.156 160.534V160.534Z" fill="#F1F8FE"/>
<path d="M300.567 68.7667C300.171 68.7667 299.784 68.884 299.456 69.1037C299.127 69.3235 298.87 69.6358 298.719 70.0013C298.568 70.3668 298.528 70.7689 298.605 71.1568C298.682 71.5448 298.873 71.9012 299.152 72.1809C299.432 72.4606 299.789 72.6511 300.176 72.7282C300.564 72.8054 300.967 72.7658 301.332 72.6144C301.697 72.4631 302.01 72.2067 302.23 71.8778C302.449 71.5489 302.567 71.1622 302.567 70.7667C302.567 70.2362 302.356 69.7275 301.981 69.3525C301.606 68.9774 301.097 68.7667 300.567 68.7667V68.7667ZM308.233 72.8C308.201 71.4172 307.942 70.049 307.467 68.75C307.043 67.6386 306.383 66.6321 305.533 65.8C304.708 64.9457 303.699 64.2903 302.583 63.8833C301.288 63.3936 299.918 63.1287 298.533 63.1C296.767 63 296.2 63 291.667 63C287.133 63 286.567 63 284.8 63.1C283.415 63.1287 282.046 63.3936 280.75 63.8833C279.636 64.2944 278.628 64.9493 277.8 65.8C276.946 66.6253 276.29 67.6341 275.883 68.75C275.394 70.0456 275.129 71.4153 275.1 72.8C275 74.5667 275 75.1333 275 79.6667C275 84.2 275 84.7667 275.1 86.5333C275.129 87.9181 275.394 89.2878 275.883 90.5833C276.29 91.6993 276.946 92.708 277.8 93.5333C278.628 94.3841 279.636 95.0389 280.75 95.45C282.046 95.9397 283.415 96.2047 284.8 96.2333C286.567 96.3333 287.133 96.3333 291.667 96.3333C296.2 96.3333 296.767 96.3333 298.533 96.2333C299.918 96.2047 301.288 95.9397 302.583 95.45C303.699 95.043 304.708 94.3876 305.533 93.5333C306.387 92.7043 307.047 91.697 307.467 90.5833C307.942 89.2843 308.201 87.9162 308.233 86.5333C308.233 84.7667 308.333 84.2 308.333 79.6667C308.333 75.1333 308.333 74.5667 308.233 72.8V72.8ZM305.233 86.3333C305.221 87.3913 305.03 88.4395 304.667 89.4333C304.401 90.1587 303.973 90.814 303.417 91.35C302.876 91.9008 302.222 92.3274 301.5 92.6C300.506 92.9629 299.458 93.1545 298.4 93.1667C296.733 93.25 296.117 93.2667 291.733 93.2667C287.35 93.2667 286.733 93.2667 285.067 93.1667C283.968 93.1872 282.874 93.0181 281.833 92.6667C281.143 92.3801 280.519 91.9546 280 91.4167C279.447 90.8812 279.025 90.2253 278.767 89.5C278.36 88.4919 278.134 87.4199 278.1 86.3333C278.1 84.6667 278 84.05 278 79.6667C278 75.2833 278 74.6667 278.1 73C278.107 71.9184 278.305 70.8466 278.683 69.8333C278.977 69.1299 279.427 68.5028 280 68C280.506 67.4269 281.132 66.9718 281.833 66.6667C282.849 66.3001 283.92 66.1085 285 66.1C286.667 66.1 287.283 66 291.667 66C296.05 66 296.667 66 298.333 66.1C299.391 66.1121 300.44 66.3037 301.433 66.6667C302.191 66.9478 302.87 67.4047 303.417 68C303.963 68.512 304.39 69.1379 304.667 69.8333C305.037 70.8482 305.229 71.9196 305.233 73C305.317 74.6667 305.333 75.2833 305.333 79.6667C305.333 84.05 305.317 84.6667 305.233 86.3333ZM291.667 71.1167C289.976 71.12 288.325 71.6242 286.921 72.5657C285.517 73.5072 284.424 74.8437 283.779 76.4063C283.135 77.9689 282.968 79.6874 283.3 81.3449C283.631 83.0023 284.447 84.5242 285.643 85.7183C286.84 86.9124 288.363 87.725 290.021 88.0536C291.68 88.3821 293.398 88.2118 294.959 87.5642C296.52 86.9166 297.855 85.8207 298.794 84.4151C299.732 83.0094 300.233 81.357 300.233 79.6667C300.236 78.5418 300.015 77.4277 299.585 76.3883C299.155 75.3488 298.524 74.4047 297.728 73.6101C296.932 72.8155 295.987 72.1861 294.946 71.7582C293.906 71.3303 292.791 71.1123 291.667 71.1167V71.1167ZM291.667 85.2167C290.569 85.2167 289.496 84.8912 288.583 84.2813C287.671 83.6715 286.959 82.8047 286.539 81.7906C286.119 80.7764 286.009 79.6605 286.223 78.5839C286.437 77.5073 286.966 76.5184 287.742 75.7422C288.518 74.966 289.507 74.4375 290.584 74.2233C291.661 74.0092 292.776 74.1191 293.791 74.5391C294.805 74.9592 295.671 75.6706 296.281 76.5833C296.891 77.4959 297.217 78.569 297.217 79.6667C297.217 80.3955 297.073 81.1172 296.794 81.7906C296.515 82.4639 296.106 83.0757 295.591 83.5911C295.076 84.1065 294.464 84.5153 293.791 84.7942C293.117 85.0731 292.396 85.2167 291.667 85.2167V85.2167Z" fill="#F1F8FE"/>
<path d="M508.567 275.767C508.171 275.767 507.784 275.884 507.456 276.104C507.127 276.323 506.87 276.636 506.719 277.001C506.568 277.367 506.528 277.769 506.605 278.157C506.682 278.545 506.873 278.901 507.152 279.181C507.432 279.461 507.789 279.651 508.176 279.728C508.564 279.805 508.967 279.766 509.332 279.614C509.697 279.463 510.01 279.207 510.23 278.878C510.449 278.549 510.567 278.162 510.567 277.767C510.567 277.236 510.356 276.728 509.981 276.352C509.606 275.977 509.097 275.767 508.567 275.767V275.767ZM516.233 279.8C516.201 278.417 515.942 277.049 515.467 275.75C515.043 274.639 514.383 273.632 513.533 272.8C512.708 271.946 511.699 271.29 510.583 270.883C509.288 270.394 507.918 270.129 506.533 270.1C504.767 270 504.2 270 499.667 270C495.133 270 494.567 270 492.8 270.1C491.415 270.129 490.046 270.394 488.75 270.883C487.636 271.294 486.628 271.949 485.8 272.8C484.946 273.625 484.29 274.634 483.883 275.75C483.394 277.046 483.129 278.415 483.1 279.8C483 281.567 483 282.133 483 286.667C483 291.2 483 291.767 483.1 293.533C483.129 294.918 483.394 296.288 483.883 297.583C484.29 298.699 484.946 299.708 485.8 300.533C486.628 301.384 487.636 302.039 488.75 302.45C490.046 302.94 491.415 303.205 492.8 303.233C494.567 303.333 495.133 303.333 499.667 303.333C504.2 303.333 504.767 303.333 506.533 303.233C507.918 303.205 509.288 302.94 510.583 302.45C511.699 302.043 512.708 301.388 513.533 300.533C514.387 299.704 515.047 298.697 515.467 297.583C515.942 296.284 516.201 294.916 516.233 293.533C516.233 291.767 516.333 291.2 516.333 286.667C516.333 282.133 516.333 281.567 516.233 279.8V279.8ZM513.233 293.333C513.221 294.391 513.03 295.44 512.667 296.433C512.401 297.159 511.973 297.814 511.417 298.35C510.876 298.901 510.222 299.327 509.5 299.6C508.506 299.963 507.458 300.155 506.4 300.167C504.733 300.25 504.117 300.267 499.733 300.267C495.35 300.267 494.733 300.267 493.067 300.167C491.968 300.187 490.874 300.018 489.833 299.667C489.143 299.38 488.519 298.955 488 298.417C487.447 297.881 487.025 297.225 486.767 296.5C486.36 295.492 486.134 294.42 486.1 293.333C486.1 291.667 486 291.05 486 286.667C486 282.283 486 281.667 486.1 280C486.107 278.918 486.305 277.847 486.683 276.833C486.977 276.13 487.427 275.503 488 275C488.506 274.427 489.132 273.972 489.833 273.667C490.849 273.3 491.92 273.108 493 273.1C494.667 273.1 495.283 273 499.667 273C504.05 273 504.667 273 506.333 273.1C507.391 273.112 508.44 273.304 509.433 273.667C510.191 273.948 510.87 274.405 511.417 275C511.963 275.512 512.39 276.138 512.667 276.833C513.037 277.848 513.229 278.92 513.233 280C513.317 281.667 513.333 282.283 513.333 286.667C513.333 291.05 513.317 291.667 513.233 293.333ZM499.667 278.117C497.976 278.12 496.325 278.624 494.921 279.566C493.517 280.507 492.424 281.844 491.779 283.406C491.135 284.969 490.968 286.687 491.3 288.345C491.631 290.002 492.447 291.524 493.643 292.718C494.84 293.912 496.363 294.725 498.021 295.054C499.68 295.382 501.398 295.212 502.959 294.564C504.52 293.917 505.855 292.821 506.794 291.415C507.732 290.009 508.233 288.357 508.233 286.667C508.236 285.542 508.015 284.428 507.585 283.388C507.155 282.349 506.524 281.405 505.728 280.61C504.932 279.815 503.987 279.186 502.946 278.758C501.906 278.33 500.791 278.112 499.667 278.117V278.117ZM499.667 292.217C498.569 292.217 497.496 291.891 496.583 291.281C495.671 290.671 494.959 289.805 494.539 288.791C494.119 287.776 494.009 286.661 494.223 285.584C494.437 284.507 494.966 283.518 495.742 282.742C496.518 281.966 497.507 281.437 498.584 281.223C499.661 281.009 500.776 281.119 501.791 281.539C502.805 281.959 503.671 282.671 504.281 283.583C504.891 284.496 505.217 285.569 505.217 286.667C505.217 287.396 505.073 288.117 504.794 288.791C504.515 289.464 504.106 290.076 503.591 290.591C503.076 291.106 502.464 291.515 501.791 291.794C501.117 292.073 500.396 292.217 499.667 292.217V292.217Z" fill="#F1F8FE"/>
<defs>
<clipPath id="clip0">
<rect width="40" height="38.224" fill="white" transform="translate(74 99)"/>
</clipPath>
</defs>
</svg>
