<svg width="48" height="40" viewBox="0 0 48 40" fill="none" xmlns="http://www.w3.org/2000/svg">
<path fill-rule="evenodd" clip-rule="evenodd" d="M9.13877 14.529H9.50035C9.78495 14.529 9.98405 14.5104 10.0938 14.4752C10.2049 14.4375 10.2933 14.3786 10.357 14.2948C10.4197 14.211 10.4534 14.1101 10.4534 13.9915C10.4534 13.784 10.3641 13.634 10.1845 13.5392C10.0539 13.4689 9.81293 13.4338 9.45949 13.4338H9.13877V14.529ZM8 12.4443H9.20724C9.86243 12.4443 10.3332 12.4972 10.6221 12.6052C10.9109 12.7132 11.138 12.8873 11.3053 13.1279C11.4715 13.3689 11.5556 13.6569 11.5556 13.9924C11.5556 14.3647 11.4459 14.6734 11.2273 14.9212C11.0102 15.1673 10.7128 15.3389 10.338 15.4358C10.1184 15.4918 9.7194 15.5189 9.13877 15.5189V17.7777H8V12.4443Z" fill="white"/>
<path fill-rule="evenodd" clip-rule="evenodd" d="M12.4445 12.4443H13.5298V16.8103H15.1111V17.7777H12.4445V12.4443Z" fill="white"/>
<path fill-rule="evenodd" clip-rule="evenodd" d="M18.6748 13.8585L17.9321 15.6897H19.4139L18.6748 13.8585ZM18.1348 12.4443H19.2038L21.3333 17.7777H20.2385L19.8058 16.679H17.5448L17.0949 17.7777H16L18.1348 12.4443Z" fill="white"/>
<path fill-rule="evenodd" clip-rule="evenodd" d="M25.8692 15.6423C26.1016 15.3059 26.2176 14.9326 26.2176 14.5249C26.2176 13.9906 26.034 13.5377 25.6651 13.1649C25.2979 12.7908 24.8536 12.6046 24.3299 12.6046C23.7928 12.6046 23.3435 12.7863 22.9805 13.1484C22.6179 13.5117 22.4371 13.9722 22.4371 14.5321C22.4371 15.155 22.6645 15.6482 23.1221 16.0106C23.4795 16.2948 23.886 16.4362 24.3399 16.4362C24.6015 16.4362 24.8477 16.387 25.076 16.2867L24.0463 14.9885H25.3527L25.8692 15.6423ZM26.5536 16.51L27.5556 17.7779H26.2592L25.75 17.137C25.3295 17.3626 24.8619 17.4753 24.3445 17.4753C23.4805 17.4753 22.7627 17.1831 22.1914 16.5996C21.6206 16.0151 21.3334 15.3202 21.3334 14.5133C21.3334 13.9736 21.4663 13.4791 21.7334 13.028C21.9991 12.5769 22.3654 12.2189 22.8303 11.9535C23.2969 11.6881 23.7965 11.5557 24.3299 11.5557C25.1477 11.5557 25.8486 11.8439 26.4336 12.4203C27.02 12.998 27.3122 13.702 27.3122 14.5321C27.3122 15.296 27.0588 15.9555 26.5536 16.51Z" fill="white"/>
<path fill-rule="evenodd" clip-rule="evenodd" d="M30.2312 13.8585L29.4884 15.6897H30.9702L30.2312 13.8585ZM29.6902 12.4443H30.7588L32.8889 17.7777H31.7926L31.36 16.679H29.1011L28.6509 17.7777H27.5555L29.6902 12.4443Z" fill="white"/>
<mask id="mask0" mask-type="alpha" maskUnits="userSpaceOnUse" x="0" y="0" width="48" height="40">
<path d="M0 0H47.0448V39.9352H0V0Z" fill="white"/>
</mask>
<g mask="url(#mask0)">
<path fill-rule="evenodd" clip-rule="evenodd" d="M35.1612 13.1091V16.5869H35.6504C36.1314 16.5869 36.481 16.5318 36.6985 16.4227C36.9149 16.3125 37.092 16.1269 37.2298 15.8669C37.3673 15.6069 37.4363 15.2874 37.4363 14.9058C37.4363 14.321 37.2729 13.8677 36.9439 13.5446C36.6483 13.2549 36.1731 13.1091 35.5183 13.1091H35.1612ZM34.1163 12.0981H35.3637C36.1674 12.0981 36.7647 12.197 37.1561 12.3948C37.5461 12.5944 37.8689 12.917 38.1219 13.3647C38.3749 13.8116 38.5014 14.3338 38.5014 14.9307C38.5014 15.3548 38.4298 15.7452 38.2888 16.1024C38.1473 16.4569 37.9523 16.7536 37.7024 16.9887C37.4534 17.2229 37.1833 17.3848 36.8921 17.4758C36.6022 17.5655 36.0985 17.6093 35.3826 17.6093H34.1163V12.0981Z" fill="white"/>
<path fill-rule="evenodd" clip-rule="evenodd" d="M41.6337 23.1084C41.6337 24.2779 40.7812 25.225 39.7289 25.225H7.31673C6.26398 25.225 5.41148 24.2779 5.41148 23.1084V7.11396C5.41148 5.94533 6.26398 4.99777 7.31673 4.99777H39.7289C40.7812 4.99777 41.6337 5.94533 41.6337 7.11396V23.1084ZM43.1965 0.0599519L3.87244 3.97793e-06C1.74187 -0.00301724 0.0136049 1.7153 0.0105691 3.83665L0 10.5287V39.9352C0 39.9352 6.65661 30.2267 8.78718 30.2307L43.1491 30.2836C45.2783 30.2871 47.007 28.5675 47.0097 26.4483L47.0448 3.90847C47.0487 1.78701 45.3248 0.0629772 43.1965 0.0599519Z" fill="white"/>
</g>
</svg>
